/* XPM */
static char *iconO[] = {
/* columns rows colors chars-per-pixel */
"64 64 95 2 ",
"   c #000000",
".  c #0C0C0C",
"X  c #020912",
"o  c #141414",
"O  c #1B1B1B",
"+  c #031425",
"@  c #03182D",
"#  c #041C33",
"$  c #242424",
"%  c gray17",
"&  c gray21",
"*  c #3A3A3A",
"=  c #052A4D",
"-  c #053D6D",
";  c #044071",
":  c #434343",
">  c #4C4C4C",
",  c #535353",
"<  c #5A5A5A",
"1  c gray39",
"2  c #6D6D6D",
"3  c #767676",
"4  c #7C7C7C",
"5  c #065495",
"6  c #065799",
"7  c #06599D",
"8  c #0761AA",
"9  c #0564B0",
"0  c #056DBE",
"q  c #0577D0",
"w  c #0488EE",
"e  c #038BF2",
"r  c #0092FF",
"t  c #0B95FB",
"y  c #1D9CF6",
"u  c #1197F9",
"i  c #1499FA",
"p  c #1A9CFA",
"a  c #229EF6",
"s  c #229FFA",
"d  c #26A0F6",
"f  c #2BA1F5",
"g  c #26A0FB",
"h  c #2AA3F9",
"j  c #33A5F3",
"k  c #38A7F2",
"l  c #3EA9F2",
"z  c #33A6F9",
"x  c #36A8FA",
"c  c #3DAAF9",
"v  c #45AEFA",
"b  c #49AFF9",
"n  c #52B3F7",
"m  c #54B4F9",
"M  c #5FB9F9",
"N  c #66BCF9",
"B  c #6BBEF9",
"V  c #75C3FA",
"C  c #7EC6F9",
"Z  c #848484",
"A  c gray55",
"S  c #959595",
"D  c #9D9D9D",
"F  c #A2A2A2",
"G  c #ACACAC",
"H  c gray71",
"J  c #BCBCBC",
"K  c #84C9F9",
"L  c #8CCCF9",
"P  c #93CFF9",
"I  c #9BD3FA",
"U  c #A7D8FA",
"Y  c #ABDAF9",
"T  c #B3DDFA",
"R  c #BEE1F7",
"E  c #BBE1FA",
"W  c #C3C3C3",
"Q  c #CACACA",
"!  c #D3D3D3",
"~  c #DCDCDC",
"^  c #C7E6FB",
"/  c #CBE7FA",
"(  c #CDE9FB",
")  c #D5ECFB",
"_  c #DCEFFC",
"`  c #DEF0FB",
"'  c #E4E4E4",
"]  c #ECECEC",
"[  c #E4F2FC",
"{  c #EBF6FD",
"}  c #EFF8FD",
"|  c #F4F4F4",
" . c #F4FAFE",
".. c #FFFFFF",
"X. c None",
/* pixels */
"X.X.X.X.X.X.X.X.X.X.X.X.X.X.X.X.X.X.X.X.X.X.X.X.X.X.X.X.l a y y y y a v X.X.X.X.X.X.X.X.X.X.X.X.X.X.X.X.X.X.X.X.X.X.X.X.X.X.X.X.",
"X.X.X.X.X.X.X.X.X.X.X.X.X.X.X.X.X.X.X.X.X.X.X.f p t r r r r r r r r r r r t u y X.X.X.X.X.X.X.X.X.X.X.X.X.X.X.X.X.X.X.X.X.X.X.X.",
"X.X.X.X.X.X.X.X.X.X.X.X.X.X.X.X.X.X.X.X.d i r r r r r r r r r r r r r r r r r r r t p X.X.X.X.X.X.X.X.X.X.X.X.X.X.X.X.X.X.X.X.X.",
"X.X.X.X.X.X.X.X.X.X.X.X.X.X.X.X.X.X.p t r r r r r r r r r r r r r r r r r r r r r r r r u j X.X.X.X.X.X.X.X.X.X.X.X.X.X.X.X.X.X.",
"X.X.X.X.X.X.X.X.X.X.X.X.X.X.X.X.y t r r r r r r r r r r r r r r r r r r r r r r r r r r r r u k X.X.X.X.X.X.X.X.X.X.X.X.X.X.X.X.",
"X.X.X.X.X.X.X.X.X.X.X.X.X.X.X.t r r r r r r r r r r r r r r r r r r r r r r r r r r r r r r r r y X.X.X.X.X.X.X.X.X.X.X.X.X.X.X.",
"X.X.X.X.X.X.X.X.X.X.X.X.X.d r r r r r r r r r r r r r r r r r r r r r r r r r r r r r r r r r r r t X.X.X.X.X.X.X.X.X.X.X.X.X.X.",
"X.X.X.X.X.X.X.X.X.X.X.X.p r r r r r r r r r r r r r r r i h v v v x g t r r r r r r r r r r r r r r t j X.X.X.X.X.X.X.X.X.X.X.X.",
"X.X.X.X.X.X.X.X.X.X.X.u r r r r r r r r r r r r p m I ( { .......... .[ T C c t r r r r r r r r r r r r f X.X.X.X.X.X.X.X.X.X.X.",
"X.X.X.X.X.X.X.X.X.X.t r r r r r r r r r r u B ( ..............................{ Y c r r r r r r r r r r r y X.X.X.X.X.X.X.X.X.X.",
"X.X.X.X.X.X.X.X.X.u r r r r r r r r r r n ` ........................................Y p r r r r r r r r r r f X.X.X.X.X.X.X.X.X.",
"X.X.X.X.X.X.X.X.i r r r r r r r r r h ^ .............................................. .K t r r r r r r r r r j X.X.X.X.X.X.X.X.",
"X.X.X.X.X.X.X.j r r r r r r r r r n { ....................................................T i r r r r r r r r t X.X.X.X.X.X.X.X.",
"X.X.X.X.X.X.d r r r r r r r r t T ..........................................................{ n r r r r r r r r t X.X.X.X.X.X.X.",
"X.X.X.X.X.X.t r r r r r r r t Y ................................................................b r r r r r r r r a X.X.X.X.X.X.",
"X.X.X.X.X.y r r r r r r r t E ....................................................................n r r r r r r r r X.X.X.X.X.X.",
"X.X.X.X.X.r r r r r r r r K ....................Q 3 ......................> 4 ] ..................{ d r r r r r r r u X.X.X.X.X.",
"X.X.X.X.i r r r r r r r n ..................] <     ! ..................!     O D ..................( t r r r r r r r X.X.X.X.X.",
"X.X.X.X.r r r r r r r d  .................G O       Z ..................1         > ' ................P r r r r r r r u X.X.X.X.",
"X.X.X.i r r r r r r r T ................A           % | ................O           % ~ ................v r r r r r r r X.X.X.X.",
"X.X.X.r r r r r r r b ................S               H ..............H               $ ' ..............( t r r r r r r a X.X.X.",
"X.X.j r r r r r r r T ..............Q .               1 ..............1                 , ................v r r r r r r t X.X.X.",
"X.X.u r r r r r r s ................%                 . | ............O                   D ..............T r r r r r r r k X.X.",
"X.X.r r r r r r r L ..............4                     J ..........~ o                   o ] ............ .g r r r r r r p X.X.",
"X.d r r r r r r r _ ............~ .                 : Q ..............| A .                 4 ..............N r r r r r r t X.X.",
"X.i r r r r r r s ..............2                 3 ....] Z > * : 1 J ....! O                 ' ............T r r r r r r r X.X.",
"X.i r r r r r r N ..............$               < ....S .             : ] ..Q .               D ............{ t r r r r r r X.X.",
"X.t r r r r r r I ............~               o ~ ..3                   % ~ ..2               < ..............s r r r r r r a X.",
"X.r r r r r r r E ............D               3 ..G                       * ..] .             O ..............v r r r r r r p X.",
"X.r r r r r r r ) ............3               W ..&       X 6 q 0 =         J ..:               ] ............M r r r r r r p X.",
"X.r r r r r r r [ ............1               ] ] .       9 r r r e #       4 ..2               ~ ............B r r r r r r t X.",
"X.r r r r r r r { ............<             o ] !         e r r r r ;       < ..Z               ~ ............V r r r r r r t X.",
"X.r r r r r r r { ............<             . ] !         w r r r r -       < ..3               ~ ............V r r r r r r t X.",
"X.r r r r r r r ` ............3               ! | .       7 r r r e +       Z ..,               ] ............N r r r r r r u X.",
"X.r r r r r r r / ............D               S ..:         - 8 5 @         Q ..O             o ..............m r r r r r r y X.",
"X.t r r r r r r Y ............!               $ | W .                     , ..F               , ..............x r r r r r r a X.",
"X.u r r r r r r K ..............$               Z ..S .                 : ] ] O               D ............ .p r r r r r r d X.",
"X.i r r r r r r v ..............2                 J ..W O             2 | ..:                 ' ............_ r r r r r r r X.X.",
"X.y r r r r r r t  .............!                 . D | | H 4 1 2 D ~ ..~ :                 2 ..............P r r r r r r r X.X.",
"X.X.r r r r r r r E ..............2                   % D ' ......| Q 1 .                 . ' ..............v r r r r r r u X.X.",
"X.X.t r r r r r r M ..............| $                     . $ % $ o                       A ..............[ t r r r r r r d X.X.",
"X.X.y r r r r r r t [ ..............W                                                   > | ..............C r r r r r r r X.X.X.",
"X.X.X.r r r r r r r L ................A                                               O ] ................p r r r r r r u X.X.X.",
"X.X.X.t r r r r r r i  .................4                                           $ ~ ................P r r r r r r r f X.X.X.",
"X.X.X.a r r r r r r r V ..................G o                                     < ' ................{ p r r r r r r r X.X.X.X.",
"X.X.X.X.t r r r r r r r E ..................] 2                               $ H ....................c r r r r r r r d X.X.X.X.",
"X.X.X.X.a r r r r r r r i [ ....................~ 4 o                     : G ......................C r r r r r r r t X.X.X.X.X.",
"X.X.X.X.X.u r r r r r r r z } ........................~ G Z 2 < 1 3 D J | ........................Y t r r r r r r r f X.X.X.X.X.",
"X.X.X.X.X.X.r r r r r r r r M  .................................................................) i r r r r r r r t X.X.X.X.X.X.",
"X.X.X.X.X.X.i r r r r r r r r N ..............................................................( p r r r r r r r r X.X.X.X.X.X.X.",
"X.X.X.X.X.X.X.u r r r r r r r r b [ ........................................................U u r r r r r r r r a X.X.X.X.X.X.X.",
"X.X.X.X.X.X.X.X.t r r r r r r r r p Y ..................................................} M r r r r r r r r r p X.X.X.X.X.X.X.X.",
"X.X.X.X.X.X.X.X.k r r r r r r r r r r m [ ............................................U s r r r r r r r r r u X.X.X.X.X.X.X.X.X.",
"X.X.X.X.X.X.X.X.X.a r r r r r r r r r r u K  ...................................../ b r r r r r r r r r r t X.X.X.X.X.X.X.X.X.X.",
"X.X.X.X.X.X.X.X.X.X.d r r r r r r r r r r r t m E ..........................{ L z r r r r r r r r r r r t X.X.X.X.X.X.X.X.X.X.X.",
"X.X.X.X.X.X.X.X.X.X.X.j r r r r r r r r r r r r r u c N I R ) [ _ ( T K m h t r r r r r r r r r r r r i X.X.X.X.X.X.X.X.X.X.X.X.",
"X.X.X.X.X.X.X.X.X.X.X.X.X.t r r r r r r r r r r r r r r r r r r r r r r r r r r r r r r r r r r r r a X.X.X.X.X.X.X.X.X.X.X.X.X.",
"X.X.X.X.X.X.X.X.X.X.X.X.X.X.a r r r r r r r r r r r r r r r r r r r r r r r r r r r r r r r r r t j X.X.X.X.X.X.X.X.X.X.X.X.X.X.",
"X.X.X.X.X.X.X.X.X.X.X.X.X.X.X.k t r r r r r r r r r r r r r r r r r r r r r r r r r r r r r r y X.X.X.X.X.X.X.X.X.X.X.X.X.X.X.X.",
"X.X.X.X.X.X.X.X.X.X.X.X.X.X.X.X.X.d t r r r r r r r r r r r r r r r r r r r r r r r r r r u X.X.X.X.X.X.X.X.X.X.X.X.X.X.X.X.X.X.",
"X.X.X.X.X.X.X.X.X.X.X.X.X.X.X.X.X.X.X.d t r r r r r r r r r r r r r r r r r r r r r r p X.X.X.X.X.X.X.X.X.X.X.X.X.X.X.X.X.X.X.X.",
"X.X.X.X.X.X.X.X.X.X.X.X.X.X.X.X.X.X.X.X.X.X.a t r r r r r r r r r r r r r r r r p d X.X.X.X.X.X.X.X.X.X.X.X.X.X.X.X.X.X.X.X.X.X.",
"X.X.X.X.X.X.X.X.X.X.X.X.X.X.X.X.X.X.X.X.X.X.X.X.X.X.d p u t t r r t t i s d X.X.X.X.X.X.X.X.X.X.X.X.X.X.X.X.X.X.X.X.X.X.X.X.X.X.",
"X.X.X.X.X.X.X.X.X.X.X.X.X.X.X.X.X.X.X.X.X.X.X.X.X.X.X.X.X.X.X.X.X.X.X.X.X.X.X.X.X.X.X.X.X.X.X.X.X.X.X.X.X.X.X.X.X.X.X.X.X.X.X.X."
};
